HIERARCHY
ROOT Hips
{
	OFFSET 0.00000 0.00000 0.00000
	CHANNELS 6 Xposition Yposition Zposition Zrotation Yrotation Xrotation 
	JOINT LHipJoint
	{
		OFFSET 0 0 0
		CHANNELS 3 Zrotation Yrotation Xrotation
		JOINT LeftHip
		{
			OFFSET 1.33213 -1.58186 0.78596
			CHANNELS 3 Zrotation Yrotation Xrotation
			JOINT LeftKnee
			{
				OFFSET 2.29717 -6.31144 0.00000
				CHANNELS 3 Zrotation Yrotation Xrotation
				JOINT LeftAnkle
				{
					OFFSET 2.38430 -6.55082 0.00000
					CHANNELS 3 Zrotation Yrotation Xrotation
					JOINT LeftToe
					{
						OFFSET 0.11863 -0.32594 1.77568
						CHANNELS 3 Zrotation Yrotation Xrotation
						End Site
						{
							OFFSET 0.00000 -0.00000 0.91633
						}
					}
				}
			}
		}
	}
	JOINT RHipJoint
	{
		OFFSET 0 0 0
		CHANNELS 3 Zrotation Yrotation Xrotation
		JOINT RightHip
		{
			OFFSET -1.41575 -1.58186 0.78596
			CHANNELS 3 Zrotation Yrotation Xrotation
			JOINT RightKnee
			{
				OFFSET -2.42012 -6.64922 0.00000
				CHANNELS 3 Zrotation Yrotation Xrotation
				JOINT RightAnkle
				{
					OFFSET -2.47254 -6.79327 0.00000
					CHANNELS 3 Zrotation Yrotation Xrotation
					JOINT RightToe
					{
						OFFSET -0.15219 -0.41813 1.93430
						CHANNELS 3 Zrotation Yrotation Xrotation
						End Site
						{
							OFFSET -0.00000 -0.00000 0.99984
						}
					}
				}
			}
		}
	}
	JOINT lowerback
	{
		OFFSET 0 0 0
		CHANNELS 3 Zrotation Yrotation Xrotation
		JOINT Chest
		{
			OFFSET -0.04717 2.09389 -0.14516
			CHANNELS 3 Zrotation Yrotation Xrotation
			JOINT Chest2
			{
				OFFSET 0.02825 2.09433 -0.11325
				CHANNELS 3 Zrotation Yrotation Xrotation
				JOINT lowerneck
				{
					OFFSET 0 0 0
					CHANNELS 3 Zrotation Yrotation Xrotation
					JOINT Neck
					{
						OFFSET -0.01210 1.39029 0.12448
						CHANNELS 3 Zrotation Yrotation Xrotation
						JOINT Head
						{
							OFFSET 0.09492 1.38365 0.14559
							CHANNELS 3 Zrotation Yrotation Xrotation
							End Site
							{
								OFFSET 0.03402 1.40343 0.03708
							}
						}
					}
				}
				JOINT LeftCollar
				{
					OFFSET 0 0 0
					CHANNELS 3 Zrotation Yrotation Xrotation
					JOINT LeftShoulder
					{
						OFFSET 2.83352 1.10671 -0.20481
CHANNELS 3 Zrotation Xrotation Yrotation
						JOINT LeftElbow
						{
OFFSET 0 -4.771950 -0.000000
CHANNELS 3 Zrotation Xrotation Yrotation
							JOINT LeftWrist
							{
OFFSET 0 -2.984440 0.000000
CHANNELS 3 Zrotation Xrotation Yrotation
								JOINT lhand
								{
									OFFSET 0 0 0
CHANNELS 3 Zrotation Xrotation Yrotation
									JOINT LFingers
									{
OFFSET 0 -0.992280 0.000000
CHANNELS 3 Zrotation Xrotation Yrotation
										End Site
										{
OFFSET 0 -0.800010 0.000000
										}
									}
								}
								JOINT LThumb
								{
OFFSET 0 0.000000 0.000000
CHANNELS 3 Zrotation Xrotation Yrotation
									End Site
									{
OFFSET 0 -0.812220 0.812220
									}
								}
							}
						}
					}
				}
				JOINT RightCollar
				{
					OFFSET 0 0 0
					CHANNELS 3 Zrotation Yrotation Xrotation
					JOINT RightShoulder
					{
						OFFSET -3.23760 1.11106 0.06723
CHANNELS 3 Zrotation Xrotation Yrotation
						JOINT RightElbow
						{
OFFSET 0 -4.620520 0.000000
CHANNELS 3 Zrotation Xrotation Yrotation
							JOINT RightWrist
							{
OFFSET 0 -2.953320 0.000000
CHANNELS 3 Zrotation Xrotation Yrotation
								JOINT rhand
								{
									OFFSET 0 0 0
CHANNELS 3 Zrotation Xrotation Yrotation
									JOINT RFingers
									{
OFFSET 0 -0.990960 0.000000
CHANNELS 3 Zrotation Xrotation Yrotation
										End Site
										{
OFFSET 0 -0.798930 0.000000
										}
									}
								}
								JOINT RThumb
								{
OFFSET 0 0.000000 0.000000
CHANNELS 3 Zrotation Xrotation Yrotation
									End Site
									{
OFFSET 0 -0.811130 0.811130
									}
								}
							}
						}
					}
				}
			}
		}
	}
}
MOTION
Frames: 9
Frame Time: 0.008333333333333333
10.638500 16.060500 34.877600 -178.940000 -9.246000 -172.210000 0.000000 0.000000 0.000000 -21.424200 -2.347200 -5.416200 0.778800 5.634400 15.727300 -0.096200 -12.713800 -7.596500 0.168600 2.645400 7.293000 0.000000 0.000000 0.000000 15.640600 6.560700 -28.559100 -1.981200 -8.826900 25.255300 -0.442600 6.712600 -12.039800 -0.037600 -1.251700 3.441800 -4.221700 -1.763400 -9.705900 1.813500 -1.970500 2.535700 3.979000 -1.231400 8.374500 -5.381900 -2.355100 0.590400 10.275300 -3.076000 -5.654200 4.428700 -1.757400 -1.672600 -0.000000 -0.000000 0.000000 -1.721900 -3.442900 -11.169200 8.172400 -13.831900 0.992900 9.224300 38.176800 -8.439000 0.000000 0.000000 0.000000 -7.125000 0.000000 0.000000 -15.080100 38.113100 -2.628900 -0.000000 -0.000000 0.000000 0.952400 2.221400 -2.878700 -12.787100 -20.974500 -2.376600 -1.566300 35.440500 5.433900 0.000000 0.000000 0.000000 7.125000 0.000000 -0.000000 20.573600 34.763000 5.469300
10.635492 16.060854 34.877512 -179.032905 -9.338816 -172.138331 0.000000 0.000000 0.000000 -21.528519 -2.372506 -5.372579 0.764997 5.585470 15.586173 -0.106110 -12.812368 -7.534033 0.173201 2.680969 7.391745 0.000000 0.000000 0.000000 15.477972 6.595473 -28.609003 -1.992614 -8.850701 25.329270 -0.447732 6.753744 -12.110231 -0.049279 -1.430874 3.935169 -4.437062 -1.800473 -9.840479 1.895787 -1.994390 2.594451 4.182948 -1.262014 8.531996 -5.413665 -2.381556 0.644639 10.176025 -3.106260 -5.800724 4.404279 -1.772088 -1.728962 0.000000 0.000000 0.000000 -1.946995 -3.594379 -10.933133 8.172135 -13.831458 0.992900 9.121839 38.379244 -8.480851 0.000000 0.000000 0.000000 -7.125000 0.000000 0.000000 -15.175128 38.146723 -2.633501 0.000000 0.000000 0.000000 0.760751 2.054348 -3.070526 -12.797452 -20.989719 -2.380228 -1.500205 35.789557 5.439740 0.000000 0.000000 0.000000 7.125000 0.000000 0.000000 20.626865 34.764770 5.484165
10.633638 16.063209 34.876730 -179.062701 -9.372757 -172.103603 0.000000 0.000000 0.000000 -21.561263 -2.362793 -5.330112 0.753734 5.545083 15.469982 -0.111402 -12.844363 -7.483263 0.170183 2.657355 7.326253 0.000000 0.000000 0.000000 15.393461 6.680040 -28.646439 -2.001104 -8.868346 25.384307 -0.452402 6.707767 -12.160190 -0.056726 -1.536626 4.226591 -4.525977 -1.801914 -9.848765 1.934283 -1.987957 2.602023 4.275841 -1.265538 8.549806 -5.359771 -2.394235 0.606293 10.054276 -3.120821 -5.846967 4.349767 -1.776848 -1.737762 0.000000 0.000000 0.000000 -2.031174 -3.579082 -11.150139 8.216430 -13.902974 1.003521 9.153676 38.194263 -8.430503 0.000000 0.000000 0.000000 -7.125000 0.000000 0.000000 -15.137167 38.099844 -2.644490 0.000000 0.000000 0.000000 0.665842 2.058613 -2.905867 -12.880456 -21.111760 -2.410099 -1.396245 35.649446 5.693781 0.000000 0.000000 0.000000 7.125000 0.000000 0.000000 20.772023 34.996424 5.401981
10.632087 16.063507 34.876304 -179.075199 -9.383161 -172.081603 0.000000 0.000000 0.000000 -21.577994 -2.334032 -5.305161 0.744618 5.512126 15.375192 -0.113254 -12.810507 -7.428028 0.167398 2.635746 7.266218 0.000000 0.000000 0.000000 15.349894 6.744705 -28.687701 -2.008959 -8.884676 25.435137 -0.457265 6.654574 -12.212124 -0.054508 -1.506001 4.142316 -4.539095 -1.788662 -9.788280 1.932718 -1.970703 2.564436 4.285818 -1.254995 8.472302 -5.304247 -2.366504 0.565280 9.997486 -3.082968 -5.853726 4.317189 -1.757217 -1.737022 0.000000 0.000000 0.000000 -2.027247 -3.455516 -11.589730 8.285064 -14.013794 1.020050 9.232119 37.808500 -8.406601 0.000000 0.000000 0.000000 -7.125000 0.000000 0.000000 -15.066409 38.082013 -2.638242 0.000000 0.000000 0.000000 0.644704 2.109134 -2.714681 -12.943642 -21.204569 -2.432905 -1.346300 35.374603 5.880656 0.000000 0.000000 0.000000 7.125000 0.000000 0.000000 20.858293 35.168248 5.334066
10.629343 16.062383 34.875930 -179.102726 -9.394205 -172.052431 0.000000 0.000000 0.000000 -21.617502 -2.300140 -5.304001 0.737310 5.485541 15.298702 -0.115541 -12.783884 -7.372114 0.170706 2.661262 7.337060 0.000000 0.000000 0.000000 15.300340 6.753798 -28.737601 -2.015451 -8.898118 25.477070 -0.459416 6.672400 -12.241728 -0.058871 -1.563509 4.300942 -4.528204 -1.781445 -9.710186 1.905338 -1.962938 2.497687 4.253261 -1.245078 8.351940 -5.320013 -2.320419 0.549991 10.048599 -3.022961 -5.790503 4.336571 -1.726880 -1.717958 0.000000 0.000000 0.000000 -2.000808 -3.290704 -11.991383 8.360620 -14.135684 1.038424 9.266454 37.402232 -8.403878 0.000000 0.000000 0.000000 -7.125000 0.000000 0.000000 -15.037162 38.081832 -2.632923 0.000000 0.000000 0.000000 0.644169 2.154995 -2.627847 -12.955364 -21.221766 -2.437119 -1.370913 35.171498 5.879176 0.000000 0.000000 0.000000 7.125000 0.000000 0.000000 20.838484 35.168315 5.328324
10.625380 16.061218 34.875276 -179.141234 -9.422127 -172.025519 0.000000 0.000000 0.000000 -21.672675 -2.301524 -5.305399 0.733646 5.472294 15.260610 -0.117921 -12.790279 -7.342694 0.170229 2.657621 7.327002 0.000000 0.000000 0.000000 15.250315 6.697107 -28.777588 -2.018570 -8.904582 25.497330 -0.460957 6.724333 -12.268436 -0.065375 -1.649643 4.538318 -4.537314 -1.782878 -9.664878 1.888902 -1.963945 2.459084 4.241604 -1.242784 8.283530 -5.412101 -2.286701 0.508931 10.160573 -2.980489 -5.685367 4.391601 -1.703543 -1.677351 0.000000 0.000000 0.000000 -2.019288 -3.204292 -12.275795 8.432385 -14.251318 1.056030 9.250895 37.046885 -8.288189 0.000000 0.000000 0.000000 -7.125000 0.000000 0.000000 -15.024112 37.967716 -2.673817 0.000000 0.000000 0.000000 0.611997 2.140722 -2.613155 -12.948366 -21.211521 -2.434570 -1.391847 35.063189 5.813043 0.000000 0.000000 0.000000 7.125000 0.000000 0.000000 20.805244 35.107725 5.351647
10.621573 16.060206 34.874268 -179.153646 -9.477952 -172.022957 0.000000 0.000000 0.000000 -21.693459 -2.341336 -5.291576 0.734721 5.476327 15.272263 -0.121031 -12.832593 -7.333261 0.165750 2.623061 7.231091 0.000000 0.000000 0.000000 15.240181 6.615290 -28.774112 -2.017009 -8.901394 25.487387 -0.464715 6.727497 -12.314775 -0.064137 -1.633077 4.492560 -4.573870 -1.793081 -9.674413 1.919633 -1.975507 2.486704 4.293048 -1.253108 8.323234 -5.528979 -2.270542 0.436403 10.249711 -2.959548 -5.629616 4.443955 -1.690176 -1.645360 0.000000 0.000000 0.000000 -2.108649 -3.253714 -12.539486 8.498646 -14.357897 1.072390 9.250547 36.674040 -7.987112 0.000000 0.000000 0.000000 -7.125000 0.000000 0.000000 -14.957587 37.673345 -2.772236 0.000000 0.000000 0.000000 0.521886 2.038213 -2.598134 -12.959161 -21.227386 -2.438475 -1.337307 34.999240 5.781974 0.000000 0.000000 0.000000 7.125000 0.000000 0.000000 20.840373 35.075506 5.379304
10.618900 16.059429 34.873223 -179.099856 -9.565007 -172.041838 0.000000 0.000000 0.000000 -21.628273 -2.382002 -5.285572 0.739081 5.492099 15.317675 -0.128337 -12.917033 -7.298023 0.171198 2.664862 7.347159 0.000000 0.000000 0.000000 15.297180 6.577238 -28.725717 -2.011451 -8.889885 25.451407 -0.470007 6.648408 -12.368124 -0.056328 -1.530448 4.209675 -4.585359 -1.816668 -9.711039 1.995847 -2.011630 2.543613 4.374188 -1.277936 8.414188 -5.606030 -2.255495 0.398020 10.272011 -2.937552 -5.658634 4.467142 -1.677905 -1.648816 0.000000 0.000000 0.000000 -2.224326 -3.351289 -12.916516 8.566510 -14.466845 1.089277 9.315171 36.191926 -7.652811 0.000000 0.000000 0.000000 -7.125000 0.000000 0.000000 -14.830693 37.350902 -2.868536 0.000000 0.000000 0.000000 0.399103 1.902397 -2.555219 -12.987516 -21.268950 -2.448753 -1.227432 34.948104 5.743395 0.000000 0.000000 0.000000 7.125000 0.000000 0.000000 20.917244 35.033079 5.424632
10.616078 16.061114 34.873088 -178.983075 -9.670950 -172.030958 0.000000 0.000000 0.000000 -21.488251 -2.433118 -5.351205 0.744392 5.511412 15.373264 -0.139065 -13.016480 -7.225971 0.185348 2.772902 7.647097 0.000000 0.000000 0.000000 15.393177 6.610817 -28.708115 -2.004670 -8.875817 25.407658 -0.475126 6.524377 -12.412671 -0.047684 -1.409657 3.876649 -4.484173 -1.847865 -9.713320 2.060077 -2.073029 2.536280 4.374813 -1.305077 8.412922 -5.615747 -2.241810 0.402920 10.261106 -2.919644 -5.636393 4.464635 -1.667579 -1.644046 0.000000 0.000000 0.000000 -2.277426 -3.334162 -13.413513 8.645567 -14.593738 1.109156 9.392495 35.681728 -7.604218 0.000000 0.000000 0.000000 -7.125000 0.000000 0.000000 -14.756210 37.308392 -2.869180 0.000000 0.000000 0.000000 0.324859 1.859720 -2.501364 -13.009770 -21.301637 -2.456884 -1.158364 34.906322 5.685932 0.000000 0.000000 0.000000 7.125000 0.000000 0.000000 20.957130 34.975320 5.467754
